trial_3_IK.mot
nRows=12
nColumns=42

name trial_3_IK.mot
datacolumns 42
datarows 12
range 4.7800000000 4.8900000000
endheader
time	pelvis_tilt	pelvis_list	pelvis_rotation	pelvis_tx	pelvis_ty	pelvis_tz	hip_flexion_r	hip_adduction_r	hip_rotation_r	knee_angle_r	knee_vv_r	knee_rot_r	ankle_angle_r	subtalar_angle_r	mtp_angle_r	hip_flexion_l	hip_adduction_l	hip_rotation_l	knee_angle_l	knee_vv_l	knee_rot_l	ankle_angle_l	subtalar_angle_l	mtp_angle_l	lumbar_extension	lumbar_bending	lumbar_rotation	arm_flex_r	arm_add_r	arm_rot_r	elbow_flex_r	pro_sup_r	wrist_flex_r	wrist_dev_r	arm_flex_l	arm_add_l	arm_rot_l	elbow_flex_l	pro_sup_l	wrist_flex_l	wrist_dev_l
        4.7800000000	       10.0486315700	        0.4549689600	       -0.9890721000	        0.1169729100	        0.8959500100	       -0.0036837000	      -20.9112228300	        0.9578908300	        5.6421593900	      -12.4079558100	        0.0000000000	        0.0000000000	       18.0421062000	        0.0000000000	        0.0000000000	        9.9386381700	        1.2221799600	       -3.6763949700	       -3.0335749600	        0.0000000000	        0.0000000000	       -6.3903882900	        0.0000000000	        0.0000000000	      -24.7810905700	       -3.4717474800	        5.1404473800	       24.8418820900	      -22.8586807000	       20.3943636900	       29.2822586400	       86.5166270600	        0.0000000000	        0.0000000000	       -1.2264409200	      -11.7380964900	       39.0690651500	        4.2134421200	       85.9436692700	        0.0000000000	        0.0000000000	
        4.7900000000	       10.4040402700	        0.7324830500	       -0.9321370700	        0.1184555900	        0.8953310500	       -0.0057194800	      -21.6342225100	        0.5482505200	        5.3778087500	      -13.1097160500	        0.0000000000	        0.0000000000	       17.8714234300	        0.0000000000	        0.0000000000	        9.7688387300	        1.6903899800	       -3.7351000100	       -4.3118559900	        0.0000000000	        0.0000000000	       -7.3498710600	        0.0000000000	        0.0000000000	      -25.0830338000	       -3.7096589200	        4.7778305700	       24.4283659300	      -22.4732932900	       20.3806387000	       28.7671503200	       86.5166270600	        0.0000000000	        0.0000000000	       -0.7657827500	      -11.8177769200	       39.6849638300	        4.1836542900	       85.9436692700	        0.0000000000	        0.0000000000	
        4.8000000000	       10.7821588200	        1.1183114100	       -0.8286995400	        0.1199940800	        0.8950315600	       -0.0079072200	      -22.3083529700	        0.0463417200	        5.0034719700	      -13.9483223500	        0.0000000000	        0.0000000000	       17.5629810400	        0.0000000000	        0.0000000000	        9.5683529200	        2.2718225200	       -3.8328692200	       -5.5224437100	        0.0000000000	        0.0000000000	       -8.3494941800	        0.0000000000	        0.0000000000	      -25.4220191900	       -4.0422706800	        4.3331417900	       23.9383868500	      -22.0394894000	       20.3259831400	       28.2085468500	       86.5166270600	        0.0000000000	        0.0000000000	       -0.2490151400	      -11.9186292300	       40.3595356000	        4.1535544500	       85.9436692700	        0.0000000000	        0.0000000000	
        4.8100000000	       11.1569157300	        1.5996406400	       -0.6901060100	        0.1215118300	        0.8950808700	       -0.0101924100	      -22.8798426300	       -0.5312626100	        4.5340431700	      -14.9676384300	        0.0000000000	        0.0000000000	       17.0914902800	        0.0000000000	        0.0000000000	        9.3318946200	        2.9329478800	       -3.9619152400	       -6.6610971100	        0.0000000000	        0.0000000000	       -9.2355399000	        0.0000000000	        0.0000000000	      -25.7810994500	       -4.4546862700	        3.8302680200	       23.3706257300	      -21.5604454100	       20.2382899800	       27.6071917100	       86.5166270600	        0.0000000000	        0.0000000000	        0.3276425100	      -12.0333585400	       41.1036859100	        4.1172615800	       85.9436692700	        0.0000000000	        0.0000000000	
        4.8200000000	       11.5059161000	        2.1454562900	       -0.5325228100	        0.1229864600	        0.8954661300	       -0.0125170400	      -23.2956113500	       -1.1559685600	        3.9842842800	      -16.2149407100	        0.0000000000	        0.0000000000	       16.4285364800	        0.0000000000	        0.0000000000	        9.0584060200	        3.6334000100	       -4.1133099300	       -7.7638674700	        0.0000000000	        0.0000000000	       -9.8732619300	        0.0000000000	        0.0000000000	      -26.1322241900	       -4.9168914600	        3.3031902100	       22.7240885100	      -21.0439996000	       20.1396763700	       26.9589839800	       86.5166270600	        0.0000000000	        0.0000000000	        0.9599828600	      -12.1532747400	       41.9167037900	        4.0677566600	       85.9436692700	        0.0000000000	        0.0000000000	
        4.8300000000	       11.8172311700	        2.7118550500	       -0.3747208900	        0.1244440000	        0.8961471300	       -0.0148408600	      -23.5088459800	       -1.7961077300	        3.3667233600	      -17.7371193400	        0.0000000000	        0.0000000000	       15.5430474400	        0.0000000000	        0.0000000000	        8.7624142000	        4.3355907700	       -4.2760089800	       -8.8693159300	        0.0000000000	        0.0000000000	      -10.1757065800	        0.0000000000	        0.0000000000	      -26.4419903400	       -5.3892748900	        2.7885989100	       22.0008357500	      -20.5023451700	       20.0646884300	       26.2553293000	       86.5166270600	        0.0000000000	        0.0000000000	        1.6384898600	      -12.2687566900	       42.7820393300	        4.0000859200	       85.9436692700	        0.0000000000	        0.0000000000	
        4.8400000000	       12.0827154100	        3.2554438100	       -0.2358159100	        0.1258916700	        0.8970397700	       -0.0171477400	      -23.4779631500	       -2.4286876100	        2.6932942700	      -19.5735862000	        0.0000000000	        0.0000000000	       14.4024437500	        0.0000000000	        0.0000000000	        8.4641940300	        5.0107878900	       -4.4349011500	       -9.9889466200	        0.0000000000	        0.0000000000	      -10.1176397200	        0.0000000000	        0.0000000000	      -26.6786031600	       -5.8332256400	        2.3176444600	       21.2088592300	      -19.9496765600	       20.0548097600	       25.4858407700	       86.5166270600	        0.0000000000	        0.0000000000	        2.3538032900	      -12.3704040300	       43.6663736200	        3.9150250200	       85.9436692700	        0.0000000000	        0.0000000000	
        4.8500000000	       12.2905203100	        3.7479731400	       -0.1334865400	        0.1273119500	        0.8980340400	       -0.0194347000	      -23.1644296800	       -3.0484245900	        1.9806817300	      -21.7469507400	        0.0000000000	        0.0000000000	       12.9747083500	        0.0000000000	        0.0000000000	        8.1734811800	        5.6424831000	       -4.5701501900	      -11.0944174000	        0.0000000000	        0.0000000000	       -9.7330555100	        0.0000000000	        0.0000000000	      -26.8175011400	       -6.2230738000	        1.9105932600	       20.3631614900	      -19.3985046400	       20.1508323200	       24.6425107200	       86.5166270600	        0.0000000000	        0.0000000000	        3.0997877000	      -12.4514602100	       44.5225605800	        3.8211640600	       85.9436692700	        0.0000000000	        0.0000000000	
        4.8600000000	       12.4264172000	        4.1835996500	       -0.0825001400	        0.1286705500	        0.8990509100	       -0.0216954800	      -22.5360530700	       -3.6686644800	        1.2570331400	      -24.2550860300	        0.0000000000	        0.0000000000	       11.2315103900	        0.0000000000	        0.0000000000	        7.8845532600	        6.2291258900	       -4.6596035100	      -12.1206698600	        0.0000000000	        0.0000000000	       -9.0994928400	        0.0000000000	        0.0000000000	      -26.8452884400	       -6.5548922300	        1.5768259900	       19.4840643600	      -18.8561415900	       20.3853965800	       23.7235838000	       86.5166270600	        0.0000000000	        0.0000000000	        3.8703952900	      -12.5103926100	       45.2960548900	        3.7341527700	       85.9436692700	        0.0000000000	        0.0000000000	
        4.8700000000	       12.4796013900	        4.5755684800	       -0.0938766400	        0.1299028400	        0.9000525300	       -0.0239222000	      -21.5758488400	       -4.3132799400	        0.5666166600	      -27.0678242500	        0.0000000000	        0.0000000000	        9.1524397700	        0.0000000000	        0.0000000000	        7.5815937000	        6.7850168600	       -4.6841610200	      -12.9832907200	        0.0000000000	        0.0000000000	       -8.3154905800	        0.0000000000	        0.0000000000	      -26.7605243900	       -6.8471799000	        1.3181850400	       18.5935433900	      -18.3231821100	       20.7777706200	       22.7354148100	       86.5166270600	        0.0000000000	        0.0000000000	        4.6555507100	      -12.5521160400	       45.9332238500	        3.6744555700	       85.9436692700	        0.0000000000	        0.0000000000	
        4.8800000000	       12.4473458700	        4.9457868800	       -0.1754510300	        0.1309544500	        0.9010216300	       -0.0261119900	      -20.2911336700	       -5.0039660300	       -0.0306162000	      -30.1293680500	        0.0000000000	        0.0000000000	        6.7302763700	        0.0000000000	        0.0000000000	        7.2466458300	        7.3357131600	       -4.6338503800	      -13.6047006700	        0.0000000000	        0.0000000000	       -7.4778739200	        0.0000000000	        0.0000000000	      -26.5711099900	       -7.1314412700	        1.1314924900	       17.7106531600	      -17.7954368000	       21.3319496400	       21.6911909900	       86.5166270600	        0.0000000000	        0.0000000000	        5.4431173800	      -12.5872514000	       46.3892933600	        3.6655472500	       85.9436692700	        0.0000000000	        0.0000000000	
        4.8900000000	       12.3368070700	        5.3138476700	       -0.3335998900	        0.1318227700	        0.9019548500	       -0.0282637200	      -18.7175983900	       -5.7481444700	       -0.4663926200	      -33.3655817900	        0.0000000000	        0.0000000000	        3.9771104100	        0.0000000000	        0.0000000000	        6.8668131500	        7.9068750200	       -4.5116933100	      -13.9393113500	        0.0000000000	        0.0000000000	       -6.6640334500	        0.0000000000	        0.0000000000	      -26.2924515300	       -7.4367643200	        1.0088321100	       16.8467517200	      -17.2690001700	       22.0378126500	       20.6066327500	       86.5166270600	        0.0000000000	        0.0000000000	        6.2246330000	      -12.6301093300	       46.6341413400	        3.7321574800	       85.9436692700	        0.0000000000	        0.0000000000	
